<svg viewBox="0 0 1160 470" preserveAspectRatio="xMidYMid meet" xmlns="http://www.w3.org/2000/svg">
<text x="60" y="56" class="d-title" text-anchor="start">TEAM</text><circle cx="88" cy="110" r="26" class="d-node--payer"/><text x="88" y="116" class="d-num" text-anchor="middle" font-size="20">C</text><text x="88" y="156" class="d-cap" text-anchor="middle">Corrado</text><circle cx="178" cy="110" r="26" class="d-node--payer"/><text x="178" y="116" class="d-num" text-anchor="middle" font-size="20">N</text><text x="178" y="156" class="d-cap" text-anchor="middle">Navid</text><circle cx="268" cy="110" r="26" class="d-node--payer"/><text x="268" y="116" class="d-num" text-anchor="middle" font-size="20">M</text><text x="268" y="156" class="d-cap" text-anchor="middle">Manon</text><circle cx="358" cy="110" r="26" class="d-node--payer"/><text x="358" y="116" class="d-num" text-anchor="middle" font-size="20">M</text><text x="358" y="156" class="d-cap" text-anchor="middle">Marti</text><circle cx="448" cy="110" r="26" class="d-node--payer"/><text x="448" y="116" class="d-num" text-anchor="middle" font-size="20">R</text><text x="448" y="156" class="d-cap" text-anchor="middle">Rui</text><circle cx="538" cy="110" r="26" class="d-node--payer"/><text x="538" y="116" class="d-num" text-anchor="middle" font-size="20">T</text><text x="538" y="156" class="d-cap" text-anchor="middle">Tim</text><circle cx="628" cy="110" r="26" class="d-edge--dash"/><text x="628" y="116" class="d-num" text-anchor="middle" font-size="22">+</text><text x="670" y="104" class="d-sub" text-anchor="start"><tspan x="670" dy="0">credit-risk hire</tspan><tspan x="670" dy="18">owns the grant</tspan></text><text x="60" y="220" class="d-title" text-anchor="start">WHAT AI CHANGES</text><rect x="60" y="244" width="380" height="44" rx="12" class="d-node--mint"/><text x="80" y="272" class="d-label" text-anchor="start">balance → live data</text><rect x="60" y="300" width="380" height="44" rx="12" class="d-node--mint"/><text x="80" y="328" class="d-label" text-anchor="start">dunning → care (disclosed)</text><rect x="60" y="356" width="380" height="44" rx="12" class="d-node--mint"/><text x="80" y="384" class="d-label" text-anchor="start">engagement → health</text><text x="520" y="220" class="d-title" text-anchor="start">WHAT STAYS HUMAN</text><rect x="520" y="244" width="360" height="100" rx="12" class="d-node--red"/><path d="M 551.0 274.0 v -7.0 a 9.0 9.0 0 0 1 18.0 0 v 7.0" class="d-padlock" fill="none"/><rect x="545.0" y="274.0" width="30.0" height="24.0" rx="5" class="d-padlock"/><text x="600" y="270" class="d-label" text-anchor="start"><tspan x="600" dy="0">the credit GRANT — a ceiling</tspan><tspan x="600" dy="22">autonomy can&#x27;t climb</tspan><tspan x="600" dy="22">+ the empathy / restructure call</tspan></text><text x="520" y="372" class="d-cap" text-anchor="start">AI sizes · warns · orchestrates — never auto-grants</text><text x="920" y="220" class="d-title" text-anchor="start">THE ASK</text><rect x="920" y="244" width="200" height="130" rx="12" class="d-node--amber"/><text x="936" y="274" class="d-sub" text-anchor="start"><tspan x="936" dy="0">raise =</tspan><tspan x="936" dy="20">ILLUSTRATIVE</tspan><tspan x="936" dy="20">gated on WTP +</tspan><tspan x="936" dy="20">real-data proof</tspan></text><text x="60" y="430" class="d-cap" text-anchor="start">We proved the SIGNAL, not the business — judge the honesty, fund the gates. #1 weakness = WTP.</text>
</svg>
