<svg viewBox="0 0 1120 320" preserveAspectRatio="xMidYMid meet" xmlns="http://www.w3.org/2000/svg">
<rect x="60" y="108" width="160" height="64" rx="12" class="d-node--ghost"/><text x="140" y="138" class="d-num" text-anchor="middle" font-size="22">€ 23,400</text><text x="140" y="160" class="d-cap" text-anchor="middle">one balance — it lies</text><path d="M 224 140 C 282 140, 302 96, 360 96" class="d-edge"/><rect x="360" y="74" width="250" height="44" rx="12" class="d-node--mint"/><text x="485" y="102" class="d-label" text-anchor="middle">mine</text><path d="M 224 140 C 282 140, 302 160, 360 160" class="d-edge"/><rect x="360" y="138" width="250" height="44" rx="12" class="d-node--amber"/><text x="485" y="166" class="d-label" text-anchor="middle">the tax office&#x27;s</text><path d="M 224 140 C 282 140, 302 224, 360 224" class="d-edge"/><rect x="360" y="202" width="250" height="44" rx="12" class="d-node--blue"/><text x="485" y="230" class="d-label" text-anchor="middle">not here yet</text><path d="M 640 140 H 900" class="d-edge--loop"/><text x="772" y="122" class="d-cap" text-anchor="middle">good month = you borrow LESS</text><text x="560" y="296" class="d-title" text-anchor="middle">one object   ·   one loop   ·   one objective</text>
</svg>
