<svg viewBox="0 0 1180 420" preserveAspectRatio="xMidYMid meet" xmlns="http://www.w3.org/2000/svg">
<text x="60" y="70" class="d-title" text-anchor="start">TAM</text><text x="60" y="150" class="d-num" text-anchor="start" font-size="92">3.43M</text><text x="60" y="188" class="d-sub" text-anchor="start">autónomos · Spain (Dec 2025)</text><text x="60" y="220" class="d-cap" text-anchor="start">scale: autónomo→agency · Spain→EU · payer-network</text><text x="60" y="280" class="d-title" text-anchor="start">GO-TO-MARKET — CHANNELS OVER TIME</text><rect x="60" y="304" width="300" height="78" rx="12" class="d-node--mint"/><text x="76" y="330" class="d-cap" text-anchor="start">Phase 0</text><text x="76" y="354" class="d-label" text-anchor="start">Distress wedge</text><text x="76" y="376" class="d-sub" text-anchor="start">Concurso/Watchtower · free public data</text><path d="M 360 343 H 400" class="d-edge--loop"/><rect x="400" y="304" width="300" height="78" rx="12" class="d-node"/><text x="416" y="330" class="d-cap" text-anchor="start">Phase 1</text><text x="416" y="354" class="d-label" text-anchor="start">Gestoría channel</text><text x="416" y="376" class="d-sub" text-anchor="start">cheapest in-ICP recruiting · density probe</text><path d="M 700 343 H 740" class="d-edge--loop"/><rect x="740" y="304" width="300" height="78" rx="12" class="d-node"/><text x="756" y="330" class="d-cap" text-anchor="start">Phase 2+</text><text x="756" y="354" class="d-label" text-anchor="start">Services panel</text><text x="756" y="376" class="d-sub" text-anchor="start">flat-fee · CAC + retention + cross-sell</text><text x="720" y="70" class="d-title" text-anchor="start">THREE PILLARS · ONE OBJECTIVE</text><rect x="720" y="96" width="130" height="96" rx="12" class="d-node--mint"/><text x="785" y="138" class="d-label" text-anchor="middle">Tax-Sweep+</text><text x="785" y="164" class="d-sub" text-anchor="middle">revenue</text><rect x="870" y="96" width="130" height="96" rx="12" class="d-node--blue"/><text x="935" y="138" class="d-label" text-anchor="middle">Concurso</text><text x="935" y="164" class="d-sub" text-anchor="middle">moat (cheap)</text><rect x="1020" y="96" width="130" height="96" rx="12" class="d-node--amber"/><text x="1085" y="138" class="d-label" text-anchor="middle">Bridge fee</text><text x="1085" y="164" class="d-sub" text-anchor="middle">margin (paper)</text><text x="720" y="232" class="d-cap" text-anchor="start">humans on grant only → cost-to-serve &lt; CaixaBank 38.5%</text><text x="720" y="254" class="d-cap" text-anchor="start">Nubank ~$0.80 / WeBank ~118k = ceiling, NOT peer</text>
</svg>
