<svg viewBox="0 0 1120 520" preserveAspectRatio="xMidYMid meet" xmlns="http://www.w3.org/2000/svg">
<text x="60" y="56" class="d-title" text-anchor="start">THEY CAN COPY…</text><rect x="60" y="84" width="420" height="46" rx="12" class="d-node"/><text x="78" y="106" class="d-label" text-anchor="start">ImaginBank</text><text x="78" y="124" class="d-sub" text-anchor="start">interchange + funnel</text><text x="462" y="114" class="d-cap" text-anchor="end">copyable</text><rect x="60" y="140" width="420" height="46" rx="12" class="d-node"/><text x="78" y="162" class="d-label" text-anchor="start">Nubank</text><text x="78" y="180" class="d-sub" text-anchor="start">cost curve at scale</text><text x="462" y="170" class="d-cap" text-anchor="end">copyable</text><rect x="60" y="196" width="420" height="46" rx="12" class="d-node"/><text x="78" y="218" class="d-label" text-anchor="start">Qonto</text><text x="78" y="236" class="d-sub" text-anchor="start">free tax pot widget</text><text x="462" y="226" class="d-cap" text-anchor="end">copyable</text><rect x="60" y="252" width="420" height="46" rx="12" class="d-node"/><text x="78" y="274" class="d-label" text-anchor="start">Factoring</text><text x="78" y="292" class="d-sub" text-anchor="start">one-off advance</text><text x="462" y="282" class="d-cap" text-anchor="end">copyable</text><rect x="60" y="314" width="420" height="52" rx="12" class="d-node--mint"/><text x="78" y="336" class="d-label" text-anchor="start">the borrow-less P&amp;L</text><text x="78" y="356" class="d-cap" text-anchor="start">won&#x27;t, not can&#x27;t</text><text x="620" y="56" class="d-title" text-anchor="start">THE MOAT, HONESTLY TIERED</text><rect x="620" y="100" width="70" height="56" rx="8" class="d-tier--t0"/><text x="706" y="125" class="d-label" text-anchor="start">T0 — Payer-object + grouped-CV + reg-arch</text><text x="706" y="147" class="d-sub" text-anchor="start">DEMONSTRATED today</text><rect x="620" y="176" width="70" height="56" rx="8" class="d-tier--t1"/><text x="706" y="201" class="d-label" text-anchor="start">T1 — the closed loop</text><text x="706" y="223" class="d-sub" text-anchor="start">compounding — NOT yet a moat (~0 today)</text><rect x="620" y="252" width="70" height="56" rx="8" class="d-tier--t2"/><text x="706" y="277" class="d-label" text-anchor="start">T2 — the health objective</text><text x="706" y="299" class="d-sub" text-anchor="start">softer — won&#x27;t, not can&#x27;t</text><text x="620" y="344" class="d-cap" text-anchor="start">data is NOT the moat (Verifactu/SII) ·</text><text x="620" y="366" class="d-cap" text-anchor="start">cross-customer bureau = roadmap-only, 2 gates</text>
</svg>
