<svg viewBox="0 0 1180 520" preserveAspectRatio="xMidYMid meet" xmlns="http://www.w3.org/2000/svg">
<text x="70" y="52" class="d-title" text-anchor="start">ROC — leakage gap</text><line x1="70" y1="70" x2="70" y2="450" class="d-axis"/><line x1="70" y1="450" x2="540" y2="450" class="d-axis"/><text x="305.0" y="484" class="d-cap" text-anchor="middle">false-positive rate</text><text x="26" y="260.0" class="d-cap" text-anchor="middle" transform="rotate(-90 26 260.0)">true-positive rate</text><line x1="70" y1="450" x2="540" y2="70" class="d-ref"/><polygon points="70.0,450.0 75.9,199.1 81.8,182.1 87.6,171.6 93.5,163.9 99.4,157.8 105.2,152.7 111.1,148.3 117.0,144.5 122.9,141.0 128.8,137.9 134.6,135.1 140.5,132.5 146.4,130.1 152.2,127.8 158.1,125.7 164.0,123.7 169.9,121.9 175.8,120.1 181.6,118.4 187.5,116.8 193.4,115.2 199.2,113.7 205.1,112.3 211.0,111.0 216.9,109.6 222.8,108.4 228.6,107.2 234.5,106.0 240.4,104.8 246.2,103.7 252.1,102.6 258.0,101.6 263.9,100.6 269.8,99.6 275.6,98.6 281.5,97.7 287.4,96.8 293.2,95.9 299.1,95.0 305.0,94.1 310.9,93.3 316.8,92.5 322.6,91.7 328.5,90.9 334.4,90.2 340.2,89.4 346.1,88.7 352.0,87.9 357.9,87.2 363.8,86.5 369.6,85.9 375.5,85.2 381.4,84.5 387.2,83.9 393.1,83.3 399.0,82.6 404.9,82.0 410.8,81.4 416.6,80.8 422.5,80.2 428.4,79.6 434.2,79.1 440.1,78.5 446.0,77.9 451.9,77.4 457.8,76.9 463.6,76.3 469.5,75.8 475.4,75.3 481.2,74.8 487.1,74.3 493.0,73.8 498.9,73.3 504.8,72.8 510.6,72.3 516.5,71.8 522.4,71.4 528.2,70.9 534.1,70.5 540.0,70.0 540.0,70.0 534.1,71.3 528.2,72.7 522.4,74.0 516.5,75.4 510.6,76.8 504.8,78.2 498.9,79.6 493.0,81.1 487.1,82.5 481.2,84.0 475.4,85.4 469.5,86.9 463.6,88.4 457.8,89.9 451.9,91.5 446.0,93.0 440.1,94.6 434.2,96.2 428.4,97.8 422.5,99.4 416.6,101.1 410.8,102.7 404.9,104.4 399.0,106.1 393.1,107.9 387.2,109.6 381.4,111.4 375.5,113.2 369.6,115.0 363.8,116.9 357.9,118.8 352.0,120.7 346.1,122.6 340.2,124.6 334.4,126.6 328.5,128.6 322.6,130.7 316.8,132.8 310.9,134.9 305.0,137.1 299.1,139.3 293.2,141.6 287.4,143.8 281.5,146.2 275.6,148.6 269.8,151.0 263.9,153.5 258.0,156.1 252.1,158.7 246.2,161.3 240.4,164.1 234.5,166.8 228.6,169.7 222.8,172.7 216.9,175.7 211.0,178.8 205.1,182.0 199.2,185.4 193.4,188.8 187.5,192.3 181.6,196.0 175.8,199.8 169.9,203.8 164.0,207.9 158.1,212.3 152.2,216.8 146.4,221.6 140.5,226.7 134.6,232.1 128.8,237.8 122.9,244.0 117.0,250.7 111.1,258.0 105.2,266.1 99.4,275.3 93.5,285.9 87.6,298.6 81.8,314.8 75.9,338.7 70.0,450.0" class="d-wedge"/><path d="M 70.0 450.0 L 75.9 199.1 L 81.8 182.1 L 87.6 171.6 L 93.5 163.9 L 99.4 157.8 L 105.2 152.7 L 111.1 148.3 L 117.0 144.5 L 122.9 141.0 L 128.8 137.9 L 134.6 135.1 L 140.5 132.5 L 146.4 130.1 L 152.2 127.8 L 158.1 125.7 L 164.0 123.7 L 169.9 121.9 L 175.8 120.1 L 181.6 118.4 L 187.5 116.8 L 193.4 115.2 L 199.2 113.7 L 205.1 112.3 L 211.0 111.0 L 216.9 109.6 L 222.8 108.4 L 228.6 107.2 L 234.5 106.0 L 240.4 104.8 L 246.2 103.7 L 252.1 102.6 L 258.0 101.6 L 263.9 100.6 L 269.8 99.6 L 275.6 98.6 L 281.5 97.7 L 287.4 96.8 L 293.2 95.9 L 299.1 95.0 L 305.0 94.1 L 310.9 93.3 L 316.8 92.5 L 322.6 91.7 L 328.5 90.9 L 334.4 90.2 L 340.2 89.4 L 346.1 88.7 L 352.0 87.9 L 357.9 87.2 L 363.8 86.5 L 369.6 85.9 L 375.5 85.2 L 381.4 84.5 L 387.2 83.9 L 393.1 83.3 L 399.0 82.6 L 404.9 82.0 L 410.8 81.4 L 416.6 80.8 L 422.5 80.2 L 428.4 79.6 L 434.2 79.1 L 440.1 78.5 L 446.0 77.9 L 451.9 77.4 L 457.8 76.9 L 463.6 76.3 L 469.5 75.8 L 475.4 75.3 L 481.2 74.8 L 487.1 74.3 L 493.0 73.8 L 498.9 73.3 L 504.8 72.8 L 510.6 72.3 L 516.5 71.8 L 522.4 71.4 L 528.2 70.9 L 534.1 70.5 L 540.0 70.0" class="d-curve d-curve--naive"/><path d="M 70.0 450.0 L 75.9 338.7 L 81.8 314.8 L 87.6 298.6 L 93.5 285.9 L 99.4 275.3 L 105.2 266.1 L 111.1 258.0 L 117.0 250.7 L 122.9 244.0 L 128.8 237.8 L 134.6 232.1 L 140.5 226.7 L 146.4 221.6 L 152.2 216.8 L 158.1 212.3 L 164.0 207.9 L 169.9 203.8 L 175.8 199.8 L 181.6 196.0 L 187.5 192.3 L 193.4 188.8 L 199.2 185.4 L 205.1 182.0 L 211.0 178.8 L 216.9 175.7 L 222.8 172.7 L 228.6 169.7 L 234.5 166.8 L 240.4 164.1 L 246.2 161.3 L 252.1 158.7 L 258.0 156.1 L 263.9 153.5 L 269.8 151.0 L 275.6 148.6 L 281.5 146.2 L 287.4 143.8 L 293.2 141.6 L 299.1 139.3 L 305.0 137.1 L 310.9 134.9 L 316.8 132.8 L 322.6 130.7 L 328.5 128.6 L 334.4 126.6 L 340.2 124.6 L 346.1 122.6 L 352.0 120.7 L 357.9 118.8 L 363.8 116.9 L 369.6 115.0 L 375.5 113.2 L 381.4 111.4 L 387.2 109.6 L 393.1 107.9 L 399.0 106.1 L 404.9 104.4 L 410.8 102.7 L 416.6 101.1 L 422.5 99.4 L 428.4 97.8 L 434.2 96.2 L 440.1 94.6 L 446.0 93.0 L 451.9 91.5 L 457.8 89.9 L 463.6 88.4 L 469.5 86.9 L 475.4 85.4 L 481.2 84.0 L 487.1 82.5 L 493.0 81.1 L 498.9 79.6 L 504.8 78.2 L 510.6 76.8 L 516.5 75.4 L 522.4 74.0 L 528.2 72.7 L 534.1 71.3 L 540.0 70.0" class="d-curve d-curve--grouped"/><text x="534" y="140" class="d-cap" text-anchor="end">naive 0.91</text><text x="534" y="220" class="d-cap" text-anchor="end">payer-grouped 0.78</text><text x="190" y="380" class="d-cap" text-anchor="start"><tspan x="190" dy="0">= the leakage we removed</tspan><tspan x="190" dy="18">(illustrative · synthetic)</tspan></text><text x="640" y="52" class="d-title" text-anchor="start">Calibration — prices the bridge</text><line x1="640" y1="70" x2="640" y2="450" class="d-axis"/><line x1="640" y1="450" x2="1110" y2="450" class="d-axis"/><text x="875.0" y="484" class="d-cap" text-anchor="middle">predicted probability</text><line x1="640" y1="450" x2="1110" y2="70" class="d-ref"/><text x="1104" y="94" class="d-cap" text-anchor="end">perfect</text><path d="M 640.0 450.0 L 663.5 424.0 L 687.0 398.6 L 710.5 374.6 L 734.0 352.3 L 757.5 332.2 L 781.0 314.3 L 804.5 298.6 L 828.0 284.6 L 851.5 272.0 L 875.0 260.0 L 898.5 248.0 L 922.0 235.4 L 945.5 221.4 L 969.0 205.7 L 992.5 187.8 L 1016.0 167.7 L 1039.5 145.4 L 1063.0 121.4 L 1086.5 96.0 L 1110.0 70.0" class="d-curve d-curve--calib"/><text x="670" y="130" class="d-cap" text-anchor="start"><tspan x="670" dy="0">calibrated probability</tspan><tspan x="670" dy="18">= what prices the bridge</tspan></text>
</svg>
