<svg viewBox="0 0 1180 520" preserveAspectRatio="xMidYMid meet" xmlns="http://www.w3.org/2000/svg">
<text x="60" y="32" class="d-title" text-anchor="start">THE HONEST SCORE IS THE LOWER ONE — 0.78 · THE GAP = THE LEAKAGE WE DELETED</text><text x="70" y="76" class="d-title" text-anchor="start">ROC — naive vs payer-grouped</text><line x1="70" y1="92" x2="70" y2="440" class="d-axis"/><line x1="70" y1="440" x2="540" y2="440" class="d-axis"/><text x="305.0" y="472" class="d-cap" text-anchor="middle">false-positive rate</text><text x="26" y="266.0" class="d-cap" text-anchor="middle" transform="rotate(-90 26 266.0)">true-positive rate</text><line x1="70" y1="440" x2="540" y2="92" class="d-ref"/><polygon points="70.0,440.0 75.9,210.2 81.8,194.6 87.6,185.0 93.5,178.0 99.4,172.4 105.2,167.7 111.1,163.7 117.0,160.2 122.9,157.1 128.8,154.2 134.6,151.6 140.5,149.2 146.4,147.0 152.2,145.0 158.1,143.0 164.0,141.2 169.9,139.5 175.8,137.9 181.6,136.3 187.5,134.8 193.4,133.4 199.2,132.1 205.1,130.8 211.0,129.5 216.9,128.3 222.8,127.1 228.6,126.0 234.5,124.9 240.4,123.9 246.2,122.9 252.1,121.9 258.0,120.9 263.9,120.0 269.8,119.1 275.6,118.2 281.5,117.4 287.4,116.5 293.2,115.7 299.1,114.9 305.0,114.1 310.9,113.4 316.8,112.6 322.6,111.9 328.5,111.2 334.4,110.5 340.2,109.8 346.1,109.1 352.0,108.4 357.9,107.8 363.8,107.2 369.6,106.5 375.5,105.9 381.4,105.3 387.2,104.7 393.1,104.1 399.0,103.6 404.9,103.0 410.8,102.4 416.6,101.9 422.5,101.4 428.4,100.8 434.2,100.3 440.1,99.8 446.0,99.3 451.9,98.8 457.8,98.3 463.6,97.8 469.5,97.3 475.4,96.8 481.2,96.4 487.1,95.9 493.0,95.5 498.9,95.0 504.8,94.6 510.6,94.1 516.5,93.7 522.4,93.3 528.2,92.8 534.1,92.4 540.0,92.0 540.0,92.0 534.1,93.2 528.2,94.5 522.4,95.7 516.5,97.0 510.6,98.2 504.8,99.5 498.9,100.8 493.0,102.1 487.1,103.4 481.2,104.8 475.4,106.1 469.5,107.5 463.6,108.9 457.8,110.3 451.9,111.7 446.0,113.1 440.1,114.5 434.2,116.0 428.4,117.5 422.5,119.0 416.6,120.5 410.8,122.0 404.9,123.5 399.0,125.1 393.1,126.7 387.2,128.3 381.4,129.9 375.5,131.6 369.6,133.2 363.8,134.9 357.9,136.7 352.0,138.4 346.1,140.2 340.2,142.0 334.4,143.8 328.5,145.7 322.6,147.6 316.8,149.5 310.9,151.4 305.0,153.4 299.1,155.5 293.2,157.5 287.4,159.6 281.5,161.8 275.6,164.0 269.8,166.2 263.9,168.5 258.0,170.8 252.1,173.2 246.2,175.6 240.4,178.1 234.5,180.7 228.6,183.3 222.8,186.0 216.9,188.8 211.0,191.7 205.1,194.6 199.2,197.6 193.4,200.8 187.5,204.0 181.6,207.4 175.8,210.9 169.9,214.5 164.0,218.3 158.1,222.3 152.2,226.5 146.4,230.9 140.5,235.5 134.6,240.4 128.8,245.7 122.9,251.3 117.0,257.5 111.1,264.2 105.2,271.6 99.4,280.0 93.5,289.7 87.6,301.3 81.8,316.2 75.9,338.1 70.0,440.0" class="d-wedge"/><path d="M 70.0 440.0 L 75.9 210.2 L 81.8 194.6 L 87.6 185.0 L 93.5 178.0 L 99.4 172.4 L 105.2 167.7 L 111.1 163.7 L 117.0 160.2 L 122.9 157.1 L 128.8 154.2 L 134.6 151.6 L 140.5 149.2 L 146.4 147.0 L 152.2 145.0 L 158.1 143.0 L 164.0 141.2 L 169.9 139.5 L 175.8 137.9 L 181.6 136.3 L 187.5 134.8 L 193.4 133.4 L 199.2 132.1 L 205.1 130.8 L 211.0 129.5 L 216.9 128.3 L 222.8 127.1 L 228.6 126.0 L 234.5 124.9 L 240.4 123.9 L 246.2 122.9 L 252.1 121.9 L 258.0 120.9 L 263.9 120.0 L 269.8 119.1 L 275.6 118.2 L 281.5 117.4 L 287.4 116.5 L 293.2 115.7 L 299.1 114.9 L 305.0 114.1 L 310.9 113.4 L 316.8 112.6 L 322.6 111.9 L 328.5 111.2 L 334.4 110.5 L 340.2 109.8 L 346.1 109.1 L 352.0 108.4 L 357.9 107.8 L 363.8 107.2 L 369.6 106.5 L 375.5 105.9 L 381.4 105.3 L 387.2 104.7 L 393.1 104.1 L 399.0 103.6 L 404.9 103.0 L 410.8 102.4 L 416.6 101.9 L 422.5 101.4 L 428.4 100.8 L 434.2 100.3 L 440.1 99.8 L 446.0 99.3 L 451.9 98.8 L 457.8 98.3 L 463.6 97.8 L 469.5 97.3 L 475.4 96.8 L 481.2 96.4 L 487.1 95.9 L 493.0 95.5 L 498.9 95.0 L 504.8 94.6 L 510.6 94.1 L 516.5 93.7 L 522.4 93.3 L 528.2 92.8 L 534.1 92.4 L 540.0 92.0" class="d-curve d-curve--naive"/><path d="M 70.0 440.0 L 75.9 338.1 L 81.8 316.2 L 87.6 301.3 L 93.5 289.7 L 99.4 280.0 L 105.2 271.6 L 111.1 264.2 L 117.0 257.5 L 122.9 251.3 L 128.8 245.7 L 134.6 240.4 L 140.5 235.5 L 146.4 230.9 L 152.2 226.5 L 158.1 222.3 L 164.0 218.3 L 169.9 214.5 L 175.8 210.9 L 181.6 207.4 L 187.5 204.0 L 193.4 200.8 L 199.2 197.6 L 205.1 194.6 L 211.0 191.7 L 216.9 188.8 L 222.8 186.0 L 228.6 183.3 L 234.5 180.7 L 240.4 178.1 L 246.2 175.6 L 252.1 173.2 L 258.0 170.8 L 263.9 168.5 L 269.8 166.2 L 275.6 164.0 L 281.5 161.8 L 287.4 159.6 L 293.2 157.5 L 299.1 155.5 L 305.0 153.4 L 310.9 151.4 L 316.8 149.5 L 322.6 147.6 L 328.5 145.7 L 334.4 143.8 L 340.2 142.0 L 346.1 140.2 L 352.0 138.4 L 357.9 136.7 L 363.8 134.9 L 369.6 133.2 L 375.5 131.6 L 381.4 129.9 L 387.2 128.3 L 393.1 126.7 L 399.0 125.1 L 404.9 123.5 L 410.8 122.0 L 416.6 120.5 L 422.5 119.0 L 428.4 117.5 L 434.2 116.0 L 440.1 114.5 L 446.0 113.1 L 451.9 111.7 L 457.8 110.3 L 463.6 108.9 L 469.5 107.5 L 475.4 106.1 L 481.2 104.8 L 487.1 103.4 L 493.0 102.1 L 498.9 100.8 L 504.8 99.5 L 510.6 98.2 L 516.5 97.0 L 522.4 95.7 L 528.2 94.5 L 534.1 93.2 L 540.0 92.0" class="d-curve d-curve--grouped"/><text x="534" y="158" class="d-cap" text-anchor="end">naive 0.91 — memorised the client</text><text x="534" y="242" class="d-cap" text-anchor="end">payer-grouped 0.78 — honest</text><text x="166" y="356" class="d-cap" text-anchor="start"><tspan x="166" dy="0">= the leakage we deleted</tspan><tspan x="166" dy="18">(“leakage” = the model cheating)</tspan></text><text x="640" y="76" class="d-title" text-anchor="start">Calibration</text><line x1="640" y1="92" x2="640" y2="440" class="d-axis"/><line x1="640" y1="440" x2="1110" y2="440" class="d-axis"/><text x="875.0" y="472" class="d-cap" text-anchor="middle">predicted probability</text><line x1="640" y1="440" x2="1110" y2="92" class="d-ref"/><text x="1104" y="114" class="d-cap" text-anchor="end">perfect</text><path d="M 640.0 440.0 L 663.5 416.1 L 687.0 392.9 L 710.5 370.9 L 734.0 350.5 L 757.5 332.1 L 781.0 315.7 L 804.5 301.3 L 828.0 288.5 L 851.5 276.9 L 875.0 266.0 L 898.5 255.1 L 922.0 243.5 L 945.5 230.7 L 969.0 216.3 L 992.5 199.9 L 1016.0 181.5 L 1039.5 161.1 L 1063.0 139.1 L 1086.5 115.9 L 1110.0 92.0" class="d-curve d-curve--calib"/><text x="666" y="146" class="d-cap" text-anchor="start"><tspan x="666" dy="0">the model knows how</tspan><tspan x="666" dy="18">sure it is — this prices</tspan><tspan x="666" dy="18">the bridge</tspan></text><rect x="440" y="484" width="300" height="30" rx="6" class="d-node--amber"/><text x="590" y="504" class="d-cap" text-anchor="middle">ILLUSTRATIVE · SYNTHETIC — proves the method</text>
</svg>
