<svg viewBox="0 0 1120 520" preserveAspectRatio="xMidYMid meet" xmlns="http://www.w3.org/2000/svg">
<rect x="60" y="40" width="230" height="440" rx="28" class="d-node"/><rect x="76" y="62" width="198" height="40" rx="8" class="d-node--ghost"/><text x="88" y="87" class="d-sub" text-anchor="start">Command Center</text><rect x="76" y="114" width="198" height="70" rx="8" class="d-node--mint"/><text x="88" y="144" class="d-cap" text-anchor="start">safe runway</text><text x="88" y="170" class="d-num" text-anchor="start" font-size="20">€ 12,400</text><rect x="76" y="200" width="198" height="44" rx="8" class="d-node--blue"/><text x="88" y="228" class="d-sub" text-anchor="start">bridge €9k · ACME</text><rect x="76" y="256" width="198" height="44" rx="8" class="d-node"/><text x="88" y="284" class="d-sub" text-anchor="start">sweep to tax pot</text><rect x="76" y="312" width="198" height="44" rx="8" class="d-node--amber"/><text x="88" y="340" class="d-sub" text-anchor="start">re-date a payment</text><rect x="76" y="368" width="198" height="44" rx="8" class="d-node"/><text x="88" y="396" class="d-sub" text-anchor="start">don&#x27;t borrow ✓</text><text x="175.0" y="508" class="d-cap" text-anchor="middle">8 live screens — open them now</text><text x="490" y="110" class="d-title" text-anchor="middle">NETFLIX</text><text x="905" y="110" class="d-title" text-anchor="middle">NETBANK</text><rect x="360" y="150" width="260" height="64" rx="12" class="d-node--ghost"/><text x="490" y="188" class="d-sub" text-anchor="middle">movies</text><rect x="730" y="150" width="350" height="64" rx="12" class="d-node"/><text x="905" y="188" class="d-sub" text-anchor="middle">financial ACTIONS, not products</text><path d="M 620 182 H 730" class="d-edge"/><rect x="360" y="270" width="260" height="64" rx="12" class="d-node--ghost"/><text x="490" y="308" class="d-sub" text-anchor="middle">keep watching ↺</text><rect x="730" y="270" width="350" height="64" rx="12" class="d-node--mint"/><text x="905" y="308" class="d-label" text-anchor="middle">the loop: each payment → a sharper next call</text><path d="M 620 302 H 730" class="d-edge--loop"/><text x="905" y="404" class="d-cap" text-anchor="middle">recommendation, not application — the win-arrow points OUT</text>
</svg>
