<svg viewBox="0 0 1160 520" preserveAspectRatio="xMidYMid meet" xmlns="http://www.w3.org/2000/svg">
<rect x="40" y="60" width="880" height="120" rx="12" class="d-band"/><text x="56" y="86" class="d-title" text-anchor="start">OBJECTS</text><rect x="40" y="220" width="880" height="120" rx="12" class="d-band"/><text x="56" y="246" class="d-title" text-anchor="start">LOGIC</text><rect x="40" y="360" width="880" height="120" rx="12" class="d-band"/><text x="56" y="386" class="d-title" text-anchor="start">ACTIONS</text><rect x="70" y="96" width="112" height="56" rx="12" class="d-node"/><text x="126.0" y="130.0" class="d-sub" text-anchor="middle">Customer</text><rect x="192" y="96" width="112" height="56" rx="12" class="d-node"/><text x="248.0" y="130.0" class="d-sub" text-anchor="middle">Account</text><rect x="314" y="96" width="112" height="56" rx="12" class="d-node"/><text x="370.0" y="130.0" class="d-sub" text-anchor="middle">Invoice</text><rect x="436" y="96" width="112" height="56" rx="12" class="d-node--payer"/><text x="492.0" y="130.0" class="d-sub" text-anchor="middle">Payer</text><rect x="558" y="96" width="112" height="56" rx="12" class="d-node"/><text x="614.0" y="130.0" class="d-sub" text-anchor="middle">Goal</text><rect x="680" y="96" width="112" height="56" rx="12" class="d-node"/><text x="736.0" y="130.0" class="d-sub" text-anchor="middle">Loan</text><rect x="802" y="96" width="112" height="56" rx="12" class="d-node"/><text x="858.0" y="130.0" class="d-sub" text-anchor="middle">Decision</text><rect x="70" y="256" width="136" height="52" rx="12" class="d-node--blue"/><text x="138.0" y="288.0" class="d-sub" text-anchor="middle">M1 late-pay</text><rect x="220" y="256" width="136" height="52" rx="12" class="d-node--blue"/><text x="288.0" y="288.0" class="d-sub" text-anchor="middle">M2 cash-flow</text><rect x="370" y="256" width="136" height="52" rx="12" class="d-node--blue"/><text x="438.0" y="288.0" class="d-sub" text-anchor="middle">M3 capacity</text><rect x="540" y="256" width="360" height="52" rx="12" class="d-node--red"/><text x="720.0" y="288.0" class="d-sub" text-anchor="middle">autonomy ladder + Annex III §5(b)/Art.22</text><rect x="70" y="396" width="500" height="52" rx="12" class="d-node"/><text x="320.0" y="428.0" class="d-sub" text-anchor="middle">9 agents: intake → … → servicing → repay</text><path d="M 580 422 C 700 460, 800 460, 820 318" class="d-edge--loop"/><text x="640" y="470" class="d-cap" text-anchor="start">retrains Reliability</text><line x1="465" y1="50" x2="465" y2="490" class="d-divider"/><text x="480" y="510" class="d-cap" text-anchor="start">object boundary = leakage plane = legal regime</text><text x="960" y="60" class="d-title" text-anchor="start">PAYER = JOIN KEY</text><circle cx="1030" cy="220" r="30" class="d-node--payer"/><text x="1030" y="226" class="d-sub" text-anchor="middle">Payer</text><circle cx="1110" cy="130" r="16" class="d-node--mint"/><path d="M 1094 130 H 1060" class="d-edge"/><circle cx="1110" cy="220" r="16" class="d-node--mint"/><path d="M 1094 220 H 1060" class="d-edge"/><circle cx="1110" cy="310" r="16" class="d-node--mint"/><path d="M 1094 310 H 1060" class="d-edge"/><text x="960" y="380" class="d-cap" text-anchor="start">cross-customer</text><text x="960" y="400" class="d-cap" text-anchor="start">bureau = ROADMAP</text><text x="960" y="420" class="d-cap" text-anchor="start">ONLY (2 gates)</text>
</svg>
