<svg viewBox="0 0 1120 520" preserveAspectRatio="xMidYMid meet" xmlns="http://www.w3.org/2000/svg">
<text x="60" y="50" class="d-title" text-anchor="start">TODAY — rigid, one-shot</text><rect x="70" y="74" width="170" height="56" rx="12" class="d-node--ghost"/><text x="155.0" y="108.0" class="d-sub" text-anchor="middle">Application</text><path d="M 240 102 H 270" class="d-edge"/><rect x="270" y="74" width="170" height="56" rx="12" class="d-node--ghost"/><text x="355.0" y="108.0" class="d-sub" text-anchor="middle">Eligibility</text><path d="M 440 102 H 470" class="d-edge"/><rect x="470" y="74" width="170" height="56" rx="12" class="d-node--ghost"/><text x="555.0" y="108.0" class="d-sub" text-anchor="middle">Risk</text><path d="M 640 102 H 670" class="d-edge"/><rect x="670" y="74" width="170" height="56" rx="12" class="d-node--ghost"/><text x="755.0" y="108.0" class="d-sub" text-anchor="middle">Decision</text><path d="M 840 102 H 870" class="d-edge"/><rect x="870" y="74" width="170" height="56" rx="12" class="d-node--ghost"/><text x="955.0" y="108.0" class="d-sub" text-anchor="middle">Outcome</text><text x="70" y="168" class="d-cap" text-anchor="start">no path back · the bank throws away every realized outcome</text><text x="60" y="240" class="d-title" text-anchor="start">NETBANK — a learning loop</text><rect x="70" y="280" width="170" height="56" rx="12" class="d-node--mint"/><text x="155.0" y="314.0" class="d-label" text-anchor="middle">Application</text><path d="M 240 308 H 270" class="d-edge--loop"/><rect x="270" y="280" width="170" height="56" rx="12" class="d-node--mint"/><text x="355.0" y="314.0" class="d-label" text-anchor="middle">Eligibility</text><path d="M 440 308 H 470" class="d-edge--loop"/><rect x="470" y="280" width="170" height="56" rx="12" class="d-node--mint"/><text x="555.0" y="314.0" class="d-label" text-anchor="middle">Risk</text><path d="M 640 308 H 670" class="d-edge--loop"/><rect x="670" y="280" width="170" height="56" rx="12" class="d-node--red"/><text x="755.0" y="314.0" class="d-label" text-anchor="middle">Decision</text><path d="M 840 308 H 870" class="d-edge--loop"/><rect x="870" y="280" width="170" height="56" rx="12" class="d-node--mint"/><text x="955.0" y="314.0" class="d-label" text-anchor="middle">Outcome</text><path d="M 746.0 256.0 v -7.0 a 9.0 9.0 0 0 1 18.0 0 v 7.0" class="d-padlock" fill="none"/><rect x="740.0" y="256.0" width="30.0" height="24.0" rx="5" class="d-padlock"/><text x="755.0" y="292.0" class="d-cap" text-anchor="middle">human grant</text><path d="M 955.0 336 C 955.0 430, 555.0 430, 555.0 336" class="d-edge--loop"/><text x="755.0" y="448" class="d-cap" text-anchor="middle">every realized payment date retrains the model</text><text x="70" y="500" class="d-cap" text-anchor="start">Predict</text><circle cx="58" cy="496" r="6" class="d-node--blue"/><text x="190" y="500" class="d-cap" text-anchor="start">Recommend</text><circle cx="178" cy="496" r="6" class="d-node--amber"/><text x="330" y="500" class="d-cap" text-anchor="start">Act / health</text><circle cx="318" cy="496" r="6" class="d-node--mint"/>
</svg>
