<svg viewBox="0 0 1060 470" preserveAspectRatio="xMidYMid meet" xmlns="http://www.w3.org/2000/svg">
<text x="60" y="56" class="d-title" text-anchor="start">FOUR FALSIFIABLE TESTS — EACH PRE-SET TO KILL ITS OWN CLAIM</text><line x1="60" y1="190" x2="1070" y2="190" class="d-grid"/><rect x="60" y="150" width="230" height="130" rx="12" class="d-node--mint"/><text x="76" y="178" class="d-label" text-anchor="start">Leakage gap</text><text x="76" y="204" class="d-sub" text-anchor="start"><tspan x="76" dy="0">DONE · 0.91 → 0.78</tspan></text><text x="76" y="260" class="d-cap" text-anchor="start">illustrative · synthetic</text><text x="274" y="178" class="d-num" text-anchor="end" font-size="22">✓</text><path d="M 290 215 H 320" class="d-edge"/><rect x="320" y="150" width="230" height="130" rx="12" class="d-node"/><text x="336" y="178" class="d-label" text-anchor="start">WTP test</text><text x="336" y="204" class="d-sub" text-anchor="start"><tspan x="336" dy="0">enough pay €12 · authorize</tspan><tspan x="336" dy="18">a real charge · beat free</tspan></text><text x="336" y="260" class="d-cap" text-anchor="start">fast &amp; falsifiable — the cheapest answer your money buys</text><circle cx="526" cy="174" r="11" class="d-node--ghost"/><line x1="526" y1="174" x2="526" y2="167.95" class="d-axis"/><line x1="526" y1="174" x2="530.95" y2="175.1" class="d-axis"/><path d="M 550 215 H 580" class="d-edge"/><rect x="580" y="150" width="230" height="130" rx="12" class="d-node"/><text x="596" y="178" class="d-label" text-anchor="start">Concurso backtest</text><text x="596" y="204" class="d-sub" text-anchor="start"><tspan x="596" dy="0">write-offs pre-flagged</tspan></text><text x="596" y="260" class="d-cap" text-anchor="start">median lead-time = weeks</text><circle cx="786" cy="174" r="11" class="d-node--ghost"/><line x1="786" y1="174" x2="786" y2="167.95" class="d-axis"/><line x1="786" y1="174" x2="790.95" y2="175.1" class="d-axis"/><path d="M 810 215 H 840" class="d-edge"/><rect x="840" y="150" width="230" height="130" rx="12" class="d-node"/><text x="856" y="178" class="d-label" text-anchor="start">Bridge paper-trade</text><text x="856" y="204" class="d-sub" text-anchor="start"><tspan x="856" dy="0">fee 1–3% &gt; loss + cost of money</tspan></text><text x="856" y="260" class="d-cap" text-anchor="start">per-Payer lift on a real cohort</text><circle cx="1046" cy="174" r="11" class="d-node--ghost"/><line x1="1046" y1="174" x2="1046" y2="167.95" class="d-axis"/><line x1="1046" y1="174" x2="1050.95" y2="175.1" class="d-axis"/><rect x="60" y="330" width="1010" height="70" rx="12" class="d-node--ghost"/><text x="80" y="360" class="d-sub" text-anchor="start">pipeline · design-partner gestorías · endorsers</text><text x="80" y="384" class="d-cap" text-anchor="start">ILLUSTRATIVE · not yet measured — fenced off, no invented numbers</text><text x="60" y="440" class="d-cap" text-anchor="start">we proved the SIGNAL, not the business — every other claim has a test it can fail</text>
</svg>
