<svg viewBox="0 0 1120 520" preserveAspectRatio="xMidYMid meet" xmlns="http://www.w3.org/2000/svg">
<text x="60" y="60" class="d-title" text-anchor="start">ONE BALANCE THAT LIES</text><rect x="60" y="86" width="150" height="64" rx="12" class="d-node--ghost"/><text x="135" y="116" class="d-num" text-anchor="middle" font-size="22">€ 23,400</text><text x="135" y="138" class="d-cap" text-anchor="middle">the single balance</text><path d="M 215 118 C 260 118, 270 110, 320 110" class="d-edge"/><rect x="320" y="86" width="200" height="44" rx="12" class="d-node--mint"/><text x="420" y="114" class="d-label" text-anchor="middle">mine</text><path d="M 215 118 C 260 118, 270 170, 320 170" class="d-edge"/><rect x="320" y="146" width="200" height="44" rx="12" class="d-node--amber"/><text x="420" y="174" class="d-label" text-anchor="middle">the tax office&#x27;s</text><path d="M 215 118 C 260 118, 270 230, 320 230" class="d-edge"/><rect x="320" y="206" width="200" height="44" rx="12" class="d-node--blue"/><text x="420" y="234" class="d-label" text-anchor="middle">not here yet</text><text x="600" y="60" class="d-title" text-anchor="start">WE LEARN HOW EACH CLIENT PAYS</text><rect x="600" y="86" width="460" height="80" rx="12" class="d-node--payer"/><text x="620" y="118" class="d-label" text-anchor="start">Client ACME</text><text x="620" y="144" class="d-sub" text-anchor="start">reliable (illustrative) → safe to advance €9k</text><rect x="600" y="184" width="220" height="64" rx="12" class="d-node--ghost"/><text x="620" y="214" class="d-sub" text-anchor="start">Client B · erratic</text><text x="620" y="236" class="d-cap" text-anchor="start">→ don&#x27;t advance</text><rect x="840" y="184" width="220" height="64" rx="12" class="d-node--mint"/><text x="950" y="212" class="d-label" text-anchor="middle">cash is coming</text><text x="950" y="236" class="d-cap" text-anchor="middle">→ don&#x27;t borrow</text><text x="600" y="300" class="d-sub" text-anchor="start">the honest branch: we win when you borrow less</text><line x1="60" y1="360" x2="1060" y2="360" class="d-grid"/><text x="60" y="392" class="d-cap" text-anchor="start">the model sizes &amp; warns — a human signs every loan</text>
</svg>
